<?xml version="1.0" standalone="no"?>
<!DOCTYPE svg PUBLIC "-//W3C//DTD SVG 20010904//EN"
 "http://www.w3.org/TR/2001/REC-SVG-20010904/DTD/svg10.dtd">
<svg version="1.0" xmlns="http://www.w3.org/2000/svg"
 width="1024.000000pt" height="1024.000000pt" viewBox="0 0 1024.000000 1024.000000"
 preserveAspectRatio="xMidYMid meet">
<metadata>
Created by potrace 1.16, written by Peter Selinger 2001-2019
</metadata>
<g transform="translate(0.000000,1024.000000) scale(0.100000,-0.100000)"
fill="#000000" stroke="none">
<path d="M7280 8789 c0 -3 -28 -9 -62 -12 -128 -12 -343 -92 -435 -163 -35
-26 -48 -31 -37 -11 4 7 3 9 -2 4 -5 -5 -9 -12 -9 -16 0 -13 -142 -141 -149
-133 -4 4 -6 2 -4 -4 2 -6 -23 -46 -55 -89 -155 -208 -227 -453 -213 -724 17
-313 17 -354 5 -405 -12 -54 -58 -151 -59 -127 0 12 -3 12 -12 3 -10 -10 -10
-14 -1 -20 17 -11 -33 -85 -50 -76 -7 4 -9 4 -5 -1 10 -11 -11 -47 -23 -40 -5
4 -8 1 -7 -6 2 -7 -3 -13 -11 -14 -8 0 -15 -7 -16 -15 -3 -18 -130 -145 -145
-145 -5 0 -9 -3 -7 -7 5 -15 -76 -86 -95 -83 -10 2 -16 0 -13 -6 4 -5 12 -6
18 -2 7 3 4 -3 -7 -15 -10 -12 -23 -20 -29 -19 -6 1 -11 -5 -12 -13 0 -9 -9
-14 -20 -13 -11 1 -14 0 -7 -3 16 -7 -53 -84 -72 -80 -6 2 -7 1 -3 -2 5 -2 -4
-17 -19 -33 -15 -15 -32 -25 -38 -22 -6 3 -8 2 -3 -2 4 -5 -7 -23 -24 -42 -30
-30 -33 -31 -46 -15 -13 15 -13 15 -4 -4 9 -19 -2 -33 -100 -128 -61 -58 -115
-104 -119 -101 -5 3 -12 0 -16 -6 -4 -8 -3 -9 4 -5 24 15 10 -5 -30 -43 -39
-36 -44 -39 -55 -24 -7 9 -13 12 -13 6 0 -7 5 -15 11 -18 7 -5 4 -13 -7 -26
-9 -10 -21 -16 -27 -12 -5 3 -7 1 -4 -4 4 -6 1 -16 -7 -22 -8 -7 -16 -8 -18
-4 -3 4 -4 3 -2 -3 2 -12 -65 -83 -78 -84 -5 0 -8 -3 -8 -7 -1 -16 -64 -72
-73 -66 -6 3 -7 2 -4 -4 6 -9 -45 -66 -57 -64 -3 1 -5 -1 -3 -4 5 -10 -107
-114 -117 -108 -6 3 -8 3 -4 -2 11 -11 -12 -36 -26 -28 -6 3 -8 3 -4 -2 4 -4
-1 -20 -12 -35 -11 -16 -20 -33 -20 -40 0 -6 -4 -8 -10 -5 -5 3 -10 0 -10 -9
0 -8 6 -17 13 -19 9 -4 8 -8 -3 -16 -13 -9 -13 -12 -1 -23 10 -10 12 -10 7 0
-15 25 10 11 26 -15 9 -16 46 -66 82 -112 71 -90 82 -115 72 -158 -21 -91
-101 -321 -109 -316 -6 3 -7 1 -3 -5 7 -12 -59 -249 -75 -268 -5 -6 -7 -13 -4
-15 2 -3 -7 -45 -20 -94 -27 -97 -30 -115 -17 -115 8 0 148 88 327 205 140 91
129 88 290 80 170 -8 168 -9 274 99 41 41 79 72 84 69 6 -3 7 -2 4 4 -8 13 77
96 88 86 4 -5 5 -3 2 3 -8 14 226 247 238 237 4 -4 5 -3 2 3 -8 13 56 77 67
67 4 -5 6 -3 4 3 -5 17 532 565 546 557 6 -3 8 -2 3 2 -14 16 386 410 405 399
6 -4 8 -3 5 3 -9 15 91 71 159 88 48 12 108 15 270 13 163 -2 227 2 291 15
240 49 429 153 613 336 58 58 109 104 113 103 5 -2 6 1 3 6 -3 5 19 48 49 96
29 48 63 114 75 147 13 34 27 56 33 52 5 -3 7 -1 4 5 -4 5 2 48 13 94 11 47
24 125 29 174 20 195 -36 451 -105 482 -57 27 -99 6 -178 -89 -27 -32 -53 -56
-59 -52 -5 3 -7 2 -4 -4 9 -14 -102 -135 -115 -127 -7 5 -8 2 -3 -5 9 -16
-103 -133 -118 -124 -6 3 -7 1 -3 -5 4 -7 2 -12 -3 -12 -6 0 -11 -6 -11 -13 0
-19 -65 -79 -75 -70 -4 5 -5 3 -2 -3 8 -13 -56 -75 -100 -97 -72 -37 -102 -33
-371 54 -177 57 -197 66 -235 109 -34 38 -214 399 -223 446 -8 41 3 107 16 99
6 -3 7 1 4 9 -4 9 1 18 10 22 9 3 14 9 12 13 -10 15 221 284 236 274 7 -3 8
-1 4 5 -5 9 42 72 84 112 3 3 37 41 75 85 38 44 73 79 77 77 4 -1 7 1 6 5 -1
5 6 21 16 36 16 23 17 35 10 65 -8 31 -17 41 -63 63 -29 14 -83 32 -120 38
-85 16 -241 29 -241 20z"/>
<path d="M4640 8152 c0 -8 -257 -25 -402 -26 -31 -1 -54 -3 -52 -6 9 -8 -241
-50 -266 -45 -17 4 -21 3 -11 -4 10 -6 5 -11 -20 -16 -19 -4 -76 -20 -127 -37
-51 -16 -98 -26 -105 -22 -6 4 -8 3 -4 -1 8 -10 -176 -86 -196 -81 -7 1 -8 1
-3 -2 9 -4 -158 -91 -177 -92 -5 0 -5 5 -1 12 4 7 3 8 -5 4 -6 -4 -9 -11 -6
-16 3 -5 -5 -14 -17 -21 -13 -7 -63 -37 -113 -68 -49 -31 -96 -54 -103 -53 -7
2 -11 -1 -10 -7 2 -5 -33 -35 -77 -67 -44 -31 -127 -96 -184 -143 -57 -47
-108 -85 -113 -83 -5 1 -7 -1 -4 -6 6 -10 -64 -78 -77 -74 -5 1 -6 -1 -3 -6 7
-12 -88 -104 -98 -95 -4 5 -6 3 -4 -3 2 -6 -27 -47 -63 -90 -36 -44 -94 -116
-129 -161 -34 -45 -67 -80 -73 -76 -6 3 -7 1 -3 -5 4 -7 -7 -33 -25 -59 -18
-25 -60 -93 -94 -149 -34 -57 -66 -100 -70 -96 -5 4 -5 2 -1 -5 8 -15 -65
-164 -77 -156 -6 3 -7 1 -4 -4 4 -6 -5 -37 -19 -69 -116 -261 -196 -563 -230
-861 -31 -280 -14 -729 36 -946 12 -54 13 -80 0 -72 -6 3 -7 -1 -4 -9 3 -9 9
-14 14 -11 11 7 62 -198 54 -221 -5 -16 -4 -17 6 -4 9 12 11 8 6 -20 -4 -20
-2 -30 2 -22 6 9 20 -18 42 -80 18 -51 35 -99 38 -107 4 -10 1 -12 -8 -6 -9 6
-11 4 -6 -4 5 -7 11 -10 14 -7 4 5 72 -137 72 -151 0 -2 -5 -1 -10 2 -5 3 -10
-1 -10 -10 0 -9 6 -15 14 -13 18 4 77 -108 69 -131 -4 -12 -3 -13 5 -3 7 11
10 11 15 -2 3 -8 1 -17 -6 -20 -8 -3 -6 -5 3 -5 8 -1 32 -30 53 -64 39 -67 45
-83 24 -71 -8 5 -8 3 2 -9 7 -9 17 -14 22 -12 4 3 13 -5 20 -17 7 -13 45 -70
86 -127 41 -56 70 -100 64 -96 -6 3 -11 1 -11 -4 0 -6 6 -11 13 -11 19 0 50
-37 42 -50 -3 -6 -1 -9 7 -8 7 2 12 -4 10 -12 -2 -8 0 -12 4 -7 7 7 44 -20 44
-32 0 -3 31 -39 69 -80 39 -41 67 -79 64 -84 -3 -6 -2 -7 4 -4 13 8 56 -37 46
-48 -5 -4 -3 -5 3 -2 6 4 40 -19 75 -51 35 -32 93 -82 129 -112 36 -29 65 -58
65 -64 0 -6 7 -11 15 -11 8 0 53 -27 100 -59 81 -56 123 -89 91 -71 -9 5 -12
4 -7 -3 4 -7 17 -17 29 -24 21 -11 21 -10 7 8 -15 18 -14 18 15 -1 17 -10 49
-30 73 -43 24 -13 39 -28 36 -34 -4 -6 -2 -8 4 -4 13 8 83 -24 76 -35 -2 -4 1
-11 7 -15 8 -5 9 -3 4 6 -9 15 -14 17 118 -44 58 -27 104 -53 101 -58 -3 -4 1
-5 9 -3 7 3 54 -10 103 -28 49 -19 102 -37 118 -41 24 -6 27 -9 15 -18 -11 -8
-11 -9 4 -4 10 3 86 -12 170 -34 337 -87 675 -121 997 -101 428 27 763 115
1140 299 74 37 141 66 148 65 7 0 11 1 8 4 -9 9 125 84 137 76 5 -3 7 -1 4 4
-4 6 16 26 46 44 86 54 236 167 332 249 96 83 302 291 331 335 13 20 19 23 26
13 8 -10 9 -9 5 3 -6 17 40 82 52 75 4 -3 8 0 8 7 0 7 24 46 54 87 96 130 197
299 276 460 42 85 80 157 85 158 4 2 6 7 4 11 -7 11 90 262 98 254 4 -4 4 0 1
9 -3 8 7 62 24 119 124 432 143 967 50 1404 -23 110 -49 140 -112 132 -21 -3
-131 -51 -243 -107 -241 -119 -243 -121 -219 -222 51 -223 45 -646 -16 -948
-67 -337 -259 -738 -494 -1030 -101 -126 -255 -279 -274 -273 -12 4 -13 3 -3
-5 10 -7 -9 -27 -75 -81 -48 -39 -94 -69 -101 -66 -7 3 -10 0 -7 -5 8 -13
-236 -172 -253 -165 -7 3 -10 0 -7 -5 3 -5 -58 -41 -137 -79 -194 -94 -439
-180 -474 -167 -10 4 -12 2 -8 -6 5 -7 -1 -9 -19 -6 -15 3 -24 1 -21 -3 3 -5
3 -9 1 -9 -2 0 -69 -11 -150 -25 -174 -29 -428 -41 -572 -26 -55 5 -129 12
-165 15 -36 3 -119 16 -185 31 -66 14 -132 28 -147 32 -15 3 -25 9 -22 14 3 5
-2 6 -11 3 -23 -9 -239 67 -223 78 9 6 6 7 -8 3 -24 -6 -147 42 -139 55 3 4
-3 14 -13 21 -15 13 -16 12 -3 -3 22 -29 -3 -22 -97 29 -183 98 -428 265 -416
284 3 5 9 7 14 4 5 -3 11 -1 14 4 7 10 -13 9 -31 -2 -7 -5 -38 15 -80 51 -97
84 -265 261 -258 273 4 5 2 8 -3 7 -20 -6 -186 217 -175 236 3 6 3 8 -2 4 -12
-11 -86 113 -80 134 3 9 1 19 -4 23 -7 3 -8 0 -5 -9 3 -9 3 -16 0 -16 -10 0
-95 177 -147 306 -54 136 -111 333 -133 464 -22 128 -39 317 -33 360 3 25 1
41 -7 44 -7 3 -7 5 0 5 7 1 8 15 1 49 -6 27 -7 57 -4 67 4 9 9 63 11 119 11
240 69 486 178 754 37 89 54 120 60 110 7 -10 8 -8 4 5 -8 24 61 160 76 151 7
-5 9 -2 5 8 -7 19 96 179 204 318 40 52 123 145 184 206 121 121 311 278 326
268 5 -3 8 0 7 8 -2 7 5 13 14 13 9 0 20 4 25 9 4 5 3 6 -4 2 -7 -4 -13 -5
-13 -2 0 12 151 97 161 90 8 -4 9 -3 5 4 -8 14 110 76 126 66 6 -4 8 -3 5 3
-8 13 107 68 123 58 8 -5 11 -4 7 2 -11 18 176 85 374 133 180 44 327 61 534
60 183 0 270 -7 424 -36 81 -15 325 -81 383 -103 41 -15 95 4 118 42 11 17 52
104 91 194 40 89 76 160 80 157 17 -10 -20 88 -38 101 -56 43 -311 124 -513
164 -113 22 -359 51 -437 51 -35 0 -44 3 -33 10 11 7 4 10 -27 10 -24 0 -43
-4 -43 -8z"/>
</g>
</svg>
