<svg width="16" height="16" viewBox="0 0 16 16" fill="none" xmlns="http://www.w3.org/2000/svg">
<g clip-path="url(#clip0_1303_3819)">
<path d="M11.2944 4.46112H11.2974C12.1973 4.53375 12.8841 4.8123 13.3989 5.2785C12.4263 6.086 11.9165 7.15685 11.9282 8.46112V8.4621C11.941 9.65983 12.3844 10.6858 13.2505 11.4885V11.4875C13.477 11.7017 13.7205 11.8882 13.981 12.0471C13.9596 12.1002 13.9393 12.1533 13.9175 12.2053C13.6926 12.7247 13.4282 13.1997 13.1235 13.634C12.677 14.2705 12.3446 14.6608 12.1235 14.8527L12.1167 14.8586L12.1099 14.8654C11.7687 15.1792 11.4477 15.3048 11.1343 15.3156C10.8882 15.3153 10.5387 15.2445 10.0728 15.0529L10.0718 15.0519L9.85791 14.9699C9.36037 14.7888 8.87424 14.6896 8.40381 14.6896C7.84938 14.6896 7.2793 14.8167 6.69873 15.051L6.69775 15.0519C6.20549 15.2512 5.8716 15.3272 5.6665 15.3342H5.66064C5.40748 15.3449 5.08748 15.2415 4.68604 14.8683L4.67822 14.8605L4.66943 14.8537C4.42175 14.6376 4.07215 14.228 3.6167 13.5842L3.61572 13.5832L3.44873 13.3371C3.06645 12.7517 2.74041 12.0807 2.47607 11.3176H2.47705C2.15507 10.3797 1.99854 9.48558 1.99854 8.63202C1.99858 7.65731 2.20878 6.85589 2.6001 6.20233L2.60303 6.19647C2.91217 5.66885 3.31761 5.25984 3.82568 4.95819C4.33067 4.65843 4.87199 4.50597 5.4624 4.4953C5.73032 4.49654 6.14704 4.58329 6.74658 4.80682V4.8078C7.0677 4.92833 7.34253 5.02322 7.56592 5.08905C7.76698 5.1483 7.99472 5.20524 8.18896 5.20526C8.30749 5.20526 8.4273 5.17868 8.50342 5.16034C8.59566 5.1381 8.70313 5.10754 8.82178 5.0705C9.06043 4.99597 9.37439 4.88715 9.7583 4.74628L9.75732 4.7453C10.4265 4.50483 10.9302 4.43025 11.2944 4.46112ZM10.7202 0.834167C10.6282 1.27375 10.4162 1.70351 10.0601 2.12714C9.64526 2.61198 9.21264 2.91311 8.78174 3.0451C8.87548 2.57967 9.1153 2.08924 9.49756 1.65643L9.50049 1.65253C9.73199 1.38678 10.0357 1.15495 10.4243 0.963074L10.4233 0.962097C10.5255 0.912367 10.6249 0.870813 10.7202 0.834167Z" fill="#18181B" stroke="#18181B" stroke-width="1.33"/>
</g>
<defs>
<clipPath id="clip0_1303_3819">
<rect width="16" height="16" fill="white"/>
</clipPath>
</defs>
</svg>
